<?xml version="1.0" standalone="no"?>
<!DOCTYPE svg PUBLIC "-//W3C//DTD SVG 20010904//EN"
 "http://www.w3.org/TR/2001/REC-SVG-20010904/DTD/svg10.dtd">
<svg version="1.0" xmlns="http://www.w3.org/2000/svg"
 width="225.000000pt" height="225.000000pt" viewBox="0 0 225.000000 225.000000"
 preserveAspectRatio="xMidYMid meet">
<metadata>
Created by potrace 1.11, written by Peter Selinger 2001-2013
</metadata>
<g transform="translate(0.000000,225.000000) scale(0.100000,-0.100000)"
fill="#000000" stroke="none">
<path d="M0 1125 l0 -1125 1125 0 1125 0 0 1125 0 1125 -1125 0 -1125 0 0
-1125z m2140 223 l0 -783 -227 -227 -228 -228 -782 0 -783 0 0 1010 0 1010
1010 0 1010 0 0 -782z"/>
<path d="M570 1546 c0 -8 10 -16 23 -18 22 -3 22 -4 25 -201 2 -182 4 -198 20
-195 15 3 17 24 20 216 l2 212 -45 0 c-32 0 -45 -4 -45 -14z"/>
<path d="M720 1545 c0 -9 9 -15 25 -15 l25 0 2 -162 c3 -146 5 -163 21 -166
16 -3 17 11 17 177 l0 181 -45 0 c-33 0 -45 -4 -45 -15z"/>
<path d="M880 1545 c0 -11 16 -15 68 -17 l67 -3 3 -162 c2 -155 4 -163 22
-163 19 0 20 7 20 164 0 90 -3 171 -6 180 -9 23 -174 24 -174 1z"/>
<path d="M1130 1545 c0 -11 18 -15 78 -17 l77 -3 3 -142 3 -142 -78 -3 c-61
-2 -78 -6 -78 -18 0 -12 17 -16 81 -18 117 -4 114 -8 114 194 l0 164 -100 0
c-81 0 -100 -3 -100 -15z"/>
<path d="M1390 1546 c0 -8 10 -16 23 -18 20 -3 22 -9 25 -80 2 -60 6 -78 17
-78 16 0 16 2 16 105 0 36 0 70 0 75 -1 17 -81 12 -81 -4z"/>
<path d="M1540 1545 c0 -9 9 -15 21 -15 19 0 20 -4 14 -53 -5 -37 -2 -70 9
-107 9 -29 16 -80 16 -112 0 -43 4 -58 14 -58 29 0 35 81 11 150 -22 63 -20
145 5 170 32 32 24 40 -35 40 -42 0 -55 -3 -55 -15z"/>
<path d="M877 1134 c-4 -4 -7 -29 -7 -56 l0 -48 69 0 c104 0 101 4 101 -114 0
-113 -18 -160 -65 -172 -17 -4 -25 -12 -23 -23 6 -25 49 -15 83 19 l30 30 3
145 3 144 -78 3 -78 3 -5 34 c-5 34 -19 48 -33 35z"/>
<path d="M570 1046 c0 -8 10 -16 23 -18 22 -3 22 -4 25 -201 2 -182 4 -198 20
-195 15 3 17 24 20 216 l2 212 -45 0 c-32 0 -45 -4 -45 -14z"/>
<path d="M720 1045 c0 -8 9 -15 19 -15 11 0 22 -4 25 -8 3 -5 6 -73 7 -152 1
-154 4 -170 25 -170 11 0 14 33 14 180 l0 180 -45 0 c-33 0 -45 -4 -45 -15z"/>
<path d="M1130 1046 c0 -8 5 -16 12 -18 7 -3 14 -53 20 -144 12 -198 5 -184
86 -184 39 0 75 5 85 13 11 9 22 57 40 180 l24 167 -134 0 c-108 0 -133 -3
-133 -14z m220 -31 c0 -17 -29 -221 -35 -252 -5 -20 -12 -23 -51 -23 -27 0
-47 5 -50 13 -6 17 -22 260 -17 270 2 4 38 7 79 7 58 0 74 -3 74 -15z"/>
<path d="M1460 1045 c0 -11 17 -15 73 -17 l72 -3 3 -142 3 -143 -81 0 c-74 0
-80 -2 -80 -20 0 -20 5 -21 112 -18 98 3 113 5 116 21 2 10 -3 17 -12 17 -14
0 -16 21 -16 160 l0 160 -95 0 c-77 0 -95 -3 -95 -15z"/>
</g>
</svg>
