<?xml version="1.0" encoding="utf-8"?>
<!-- Generator: Adobe Illustrator 16.0.4, SVG Export Plug-In . SVG Version: 6.00 Build 0)  -->
<!DOCTYPE svg PUBLIC "-//W3C//DTD SVG 1.1//EN" "http://www.w3.org/Graphics/SVG/1.1/DTD/svg11.dtd">
<svg version="1.1" id="Layer_1" xmlns="http://www.w3.org/2000/svg" xmlns:xlink="http://www.w3.org/1999/xlink" x="0px" y="0px"
	 width="18px" height="18px" viewBox="0 0 18 18" enable-background="new 0 0 18 18" xml:space="preserve">
<g>
	<g>
		<path d="M17.443,2.153l-1.615-1.616c-0.719-0.719-1.974-0.719-2.695,0l-0.538,0.538c0,0,0,0-0.001,0s0,0,0,0.001L1.248,12.423
			c-0.05,0.051-0.085,0.114-0.102,0.184l-1.155,4.926C-0.04,17.66,0,17.796,0.092,17.889C0.165,17.961,0.262,18,0.362,18
			c0.029,0,0.058-0.003,0.087-0.01l4.927-1.155c0.068-0.017,0.132-0.052,0.182-0.102l0.191-0.19c0-0.001,0.001,0,0.001-0.001
			s0-0.001,0-0.002L15.811,6.479c0.003-0.003,0.007-0.001,0.01-0.004s0.002-0.007,0.004-0.01l1.075-1.075
			c0.002-0.002,0.005-0.001,0.007-0.003s0.001-0.005,0.003-0.007l0.534-0.534C18.186,4.104,18.186,2.896,17.443,2.153z M15.55,5.665
			l-3.225-3.241l0.539-0.54l3.233,3.233L15.55,5.665z M5.48,15.733l-3.232-3.232l9.539-9.539l3.225,3.241L5.48,15.733z
			 M1.804,13.136l3.041,3.041l-3.972,0.932L1.804,13.136z M16.906,4.309l-0.271,0.271l-3.233-3.233l0.27-0.27
			c0.432-0.432,1.185-0.432,1.617,0l1.617,1.616C17.35,3.138,17.35,3.863,16.906,4.309z"/>
	</g>
</g>
</svg>
