<?xml version="1.0" encoding="utf-8"?>
<!-- Generator: Adobe Illustrator 16.0.4, SVG Export Plug-In . SVG Version: 6.00 Build 0)  -->
<!DOCTYPE svg PUBLIC "-//W3C//DTD SVG 1.1//EN" "http://www.w3.org/Graphics/SVG/1.1/DTD/svg11.dtd">
<svg version="1.1" id="Layer_1" xmlns="http://www.w3.org/2000/svg" xmlns:xlink="http://www.w3.org/1999/xlink" x="0px" y="0px"
	 width="16px" height="21px" viewBox="0 0 16 21" enable-background="new 0 0 16 21" xml:space="preserve">
<g>
	<g>
		<path d="M7.556,13.681v2.38c0,0.248,0.198,0.449,0.444,0.449s0.444-0.201,0.444-0.449v-2.38c0.261-0.156,0.444-0.432,0.444-0.759
			c0-0.494-0.398-0.896-0.889-0.896s-0.889,0.402-0.889,0.896C7.111,13.249,7.295,13.524,7.556,13.681z M12.989,8.015V5.4
			C12.989,2.422,11.027,0,8,0S3,2.422,3,5.4l0.008,2.614H0V21h16V8.015H12.989z M8,2c2.522,0,3,0.518,3,3v3H5L4.989,5
			C4.989,2.518,5.478,2,8,2z M14,19.006H2v-9L14,10V19.006z"/>
	</g>
</g>
</svg>
