<?xml version="1.0" encoding="utf-8"?>
<!-- Generator: Adobe Illustrator 16.0.4, SVG Export Plug-In . SVG Version: 6.00 Build 0)  -->
<!DOCTYPE svg PUBLIC "-//W3C//DTD SVG 1.1//EN" "http://www.w3.org/Graphics/SVG/1.1/DTD/svg11.dtd">
<svg version="1.1" id="Layer_1" xmlns="http://www.w3.org/2000/svg" xmlns:xlink="http://www.w3.org/1999/xlink" x="0px" y="0px"
	 width="16px" height="21px" viewBox="0 0 16 21" enable-background="new 0 0 16 21" xml:space="preserve">
<g>
	<g>
		<path d="M7.556,14.213v2.38c0,0.248,0.199,0.448,0.444,0.448s0.444-0.2,0.444-0.448v-2.38c0.261-0.157,0.444-0.433,0.444-0.76
			c0-0.494-0.398-0.896-0.889-0.896s-0.889,0.402-0.889,0.896C7.111,13.78,7.295,14.056,7.556,14.213z M0,8.072V21h16V8.072H0z
			 M14,19H2v-9h12V19z M8,2c2.45,0,3,0.527,3,3v3h2V5c0-2.967-2.06-5-5-5C5.059,0,3,2.033,3,5h2C5,2.527,5.55,2,8,2z"/>
	</g>
</g>
</svg>
